<?xml version="1.0" encoding="iso-8859-1"?>
<!-- Uploaded to: SVG Repo, www.svgrepo.com, Generator: SVG Repo Mixer Tools -->
<!DOCTYPE svg PUBLIC "-//W3C//DTD SVG 1.1//EN" "http://www.w3.org/Graphics/SVG/1.1/DTD/svg11.dtd">
<svg fill="#000000" version="1.1" id="Capa_1" xmlns="http://www.w3.org/2000/svg" xmlns:xlink="http://www.w3.org/1999/xlink" 
	 width="100px" height="100px" viewBox="0 0 462.242 462.242"
	 xml:space="preserve">
<g>
	<g>
		<path d="M173.455,364.365c-15.86,12.018-16.939,26.225-16.939,38.796c0,12.566,16.939,61.209,84.699,59.009
			c67.77-2.176,64.487-69.404,64.487-69.404s0.032-22.394-30.052-38.499c-26.661-14.267,42.672-72.21,13.662-83.363
			c-8.925-3.434-22.782,16.819-36.612,20.759v20.782h-38.337v-31.27c-1.797,0.345-3.761,0.589-5.935,0.669
			c-15.302,0.541-10.379-36.624-27.319-35.525c-16.941,1.102-8.74,44.278,0,69.953C189.845,341.963,189.296,352.342,173.455,364.365
			z M272.367,433.765c-3.174,0-5.734-2.561-5.734-5.727c0-3.174,2.561-5.743,5.734-5.743c3.175,0,5.735,2.569,5.735,5.743
			C278.103,431.205,275.542,433.765,272.367,433.765z M283.854,406.314c0,3.166-2.577,5.734-5.751,5.734
			c-3.15,0-5.727-2.568-5.727-5.734s2.576-5.734,5.727-5.734C281.276,400.58,283.854,403.148,283.854,406.314z M269.915,369.834
			c4.524,0,8.188,3.675,8.188,8.199c0,4.528-3.663,8.195-8.188,8.195c-4.536,0-8.203-3.667-8.203-8.195
			C261.712,373.509,265.379,369.834,269.915,369.834z M208.427,335.944h44.272v18.33h-44.272V335.944z M208.427,374.872h44.272
			v18.33h-44.272V374.872z" fill="yellow"/>
		<path d="M205.075,38.541c-3.312,0-6.011,2.691-6.011,6.015c0,3.312,2.699,6.011,6.011,6.011c1.486,0,2.851-0.565,3.893-1.477
			l4.665,3.55l-5.197,6.823c0,0,6.628,6.658,10.84,14.309v233.254h28.507V76.535c2.04-3.108,4.745-5.731,8.203-6.135V35.958
			l10.183-20.365c1.623-3.24,0.806-7.897-1.803-10.399L260.702,1.7c-2.608-2.506-6.5-2.208-8.708,0.675l-9.426,12.361l-5.534-4.346
			c0.148-0.524,0.24-1.076,0.24-1.649c0-3.314-2.681-6.013-6.009-6.013c-3.314,0-6.013,2.699-6.013,6.013
			c0,3.32,2.699,6.011,6.013,6.011c1.545,0,2.943-0.593,4.014-1.559l5.298,4.149l-7.721,10.104l-4.787-3.753
			c0.323-0.727,0.501-1.528,0.501-2.376c0-3.316-2.697-6.013-6.029-6.013c-3.312,0-5.995,2.697-5.995,6.013
			c0,3.32,2.683,6.011,5.995,6.011c1.289,0,2.464-0.406,3.446-1.096l4.861,3.821l-6.624,8.69l-4.695-3.681
			c0.172-0.551,0.271-1.122,0.271-1.729c0-3.31-2.683-6.013-6.009-6.013c-3.316,0-6.015,2.703-6.015,6.013
			c0,3.32,2.699,6.015,6.015,6.015c1.513,0,2.894-0.583,3.956-1.519l4.474,3.521l-6.624,8.682l-4.845-3.699
			c0.18-0.565,0.307-1.162,0.307-1.795C211.08,41.226,208.389,38.541,205.075,38.541z M205.075,47.277
			c-1.499,0-2.731-1.223-2.731-2.729c0-1.511,1.225-2.741,2.731-2.741c1.5,0,2.733,1.224,2.733,2.741
			C207.8,46.054,206.576,47.277,205.075,47.277z M231.266,11.479c-1.503,0-2.733-1.222-2.733-2.737c0-1.499,1.225-2.733,2.733-2.733
			c1.515,0,2.747,1.224,2.747,2.733C234.005,10.256,232.78,11.479,231.266,11.479z M222.549,24.056
			c-1.499,0-2.729-1.222-2.729-2.737c0-1.503,1.222-2.733,2.729-2.733c1.519,0,2.749,1.223,2.749,2.733
			C225.298,22.833,224.074,24.056,222.549,24.056z M213.813,36.068c-1.499,0-2.733-1.218-2.733-2.733
			c0-1.499,1.227-2.733,2.733-2.733c1.515,0,2.749,1.228,2.749,2.733C216.562,34.85,215.328,36.068,213.813,36.068z M251.854,19.165
			c2.425,0,4.372,1.956,4.372,4.374c0,2.419-1.947,4.374-4.372,4.374c-2.408,0-4.368-1.955-4.368-4.374
			C247.485,21.12,249.445,19.165,251.854,19.165z M243.146,31.734c2.421,0,4.368,1.954,4.368,4.374c0,2.419-1.947,4.372-4.368,4.372
			c-2.416,0-4.376-1.953-4.376-4.372C238.773,33.688,240.737,31.734,243.146,31.734z M234.405,43.762
			c2.425,0,4.368,1.956,4.368,4.374c0,2.415-1.943,4.37-4.368,4.37c-2.41,0-4.374-1.956-4.374-4.37
			C230.031,45.718,231.995,43.762,234.405,43.762z M225.665,54.955c2.413,0,4.374,1.956,4.374,4.374s-1.961,4.374-4.374,4.374
			c-2.422,0-4.368-1.956-4.368-4.374S223.243,54.955,225.665,54.955z" fill="yellow"/>
	</g>
</g>
</svg>