<svg width="229" height="229" viewBox="0 0 229 229" fill="none" xmlns="http://www.w3.org/2000/svg">
<path fill-rule="evenodd" clip-rule="evenodd" d="M20 3.39715e-05C8.95432 3.39715e-05 3.3602e-05 8.95432 3.3602e-05 20L2.82072e-05 209C2.82072e-05 220.046 8.95433 229 20 229L209 229C220.046 229 229 220.046 229 209L229 20.0001C229 8.95433 220.046 2.85767e-05 209 7.17351e-05L20 3.39715e-05ZM37 17C25.9543 17 17 25.9543 17 37L17 192C17 203.046 25.9543 212 37 212L192 212C203.046 212 212 203.046 212 192L212 37.0001C212 25.9543 203.046 17 192 17.0001L37 17ZM186.271 42.7287C190.372 46.8292 190.372 53.4775 186.271 57.5779L130.763 113.086L186.978 169.301C191.079 173.401 191.079 180.05 186.978 184.15C182.878 188.251 176.23 188.251 172.129 184.15L115.914 127.935L58.9921 184.857C54.8916 188.958 48.2434 188.958 44.1429 184.857C40.0424 180.757 40.0424 174.108 44.1429 170.008L101.065 113.086L44.85 56.8708C40.7495 52.7703 40.7495 46.1221 44.85 42.0216C48.9505 37.9211 55.5987 37.9211 59.6992 42.0216L115.914 98.2366L171.422 42.7287C175.523 38.6282 182.171 38.6282 186.271 42.7287Z" fill="#FFCB2E"/>
</svg>
