<svg width="400" height="453" viewBox="0 0 400 453" fill="none" xmlns="http://www.w3.org/2000/svg">
<path d="M388 413C394.627 413 400 418.373 400 425V441C400 447.627 394.627 453 388 453H12C5.37258 453 2.5771e-07 447.627 0 441V425C2.57711e-07 418.373 5.37258 413 12 413H388ZM205 0C211.627 2.57703e-07 217 5.37258 217 12V291.353L304.901 203.451C309.588 198.765 317.186 198.765 321.872 203.451L330.357 211.937C335.043 216.623 335.043 224.22 330.357 228.906L205.906 353.357C201.22 358.043 193.623 358.043 188.937 353.357L64.4854 228.906C59.7993 224.22 59.7993 216.623 64.4854 211.937L73.6777 202.744C78.364 198.058 85.9621 198.058 90.6484 202.744L177 289.095V12C177 5.37258 182.373 2.57703e-07 189 0H205Z" fill="#FFCB2E"/>
</svg>
