<svg width="171" height="183" viewBox="0 0 171 183" fill="none" xmlns="http://www.w3.org/2000/svg">
<path fill-rule="evenodd" clip-rule="evenodd" d="M0 13.5C0 6.04416 6.04416 0 13.5 0H157.5C164.956 0 171 6.04416 171 13.5C171 20.9558 164.956 27 157.5 27H13.5C6.04416 27 0 20.9558 0 13.5ZM0 169.5C0 162.044 6.04416 156 13.5 156H157.5C164.956 156 171 162.044 171 169.5C171 176.956 164.956 183 157.5 183H13.5C6.04416 183 0 176.956 0 169.5ZM13.5 78C6.04416 78 0 84.0442 0 91.5C0 98.9558 6.04416 105 13.5 105H157.5C164.956 105 171 98.9558 171 91.5C171 84.0442 164.956 78 157.5 78H13.5Z" fill="#FFCB2E"/>
</svg>
