<svg width="256" height="256" viewBox="0 0 256 256" fill="none" xmlns="http://www.w3.org/2000/svg">
<path d="M127.857 254.307C124.872 254.307 122.116 252.73 120.598 250.162L108.035 228.91C82.121 185.099 57.6431 143.719 49.3255 127.025C43.4638 115.006 40.5077 102.151 40.5077 88.7527C40.5105 40.5893 79.6931 1.40662 127.857 1.40662C176.023 1.40662 215.205 40.5893 215.205 88.7527C215.205 102.139 212.252 114.995 206.427 126.957C206.368 127.075 206.309 127.191 206.25 127.306C197.8 144.18 173.452 185.344 147.681 228.913L135.115 250.165C133.6 252.73 130.841 254.307 127.857 254.307ZM127.857 18.2666C88.9886 18.2666 57.3705 49.8875 57.3705 88.7527C57.3705 99.5655 59.7506 109.937 64.4461 119.576C72.4602 135.652 97.9104 178.678 122.52 220.283L127.857 229.309L133.167 220.328C157.791 178.704 183.25 135.66 191.298 119.508C191.332 119.446 191.363 119.382 191.396 119.32C196.01 109.749 198.348 99.4672 198.348 88.7555C198.345 49.8875 166.724 18.2666 127.857 18.2666Z" fill="white"/>
<path d="M127.857 126.724C105.163 126.724 86.7013 108.263 86.7013 85.569C86.7013 62.8754 105.163 44.4165 127.857 44.4165C150.547 44.4165 169.012 62.8782 169.012 85.5718C169.012 108.265 150.547 126.724 127.857 126.724ZM127.857 61.2765C114.461 61.2765 103.561 72.1737 103.561 85.5718C103.561 98.9698 114.458 109.867 127.857 109.867C141.255 109.867 152.152 98.9698 152.152 85.5718C152.152 72.1737 141.255 61.2765 127.857 61.2765Z" fill="white"/>
</svg>
