<svg width="1097" height="1131" viewBox="0 0 1097 1131" fill="none" xmlns="http://www.w3.org/2000/svg">
<path d="M548.5 0C851.428 7.06123e-05 1097 253.013 1097 565.121C1097 877.229 851.428 1130.24 548.5 1130.24C245.572 1130.24 6.01878e-05 877.229 0 565.121C0 253.013 245.572 0 548.5 0ZM548 65.2422C271.849 65.2422 48 289.091 48 565.242C48 841.394 271.849 1065.24 548 1065.24C824.151 1065.24 1048 841.394 1048 565.242C1048 289.125 824.151 65.2763 548 65.2422ZM281.333 687.76C471.78 644.259 635.172 662.99 766.97 743.509C781.64 752.55 786.315 771.691 777.308 786.361C768.335 801.1 749.126 805.706 734.455 796.733C617.055 724.983 469.256 708.777 295.22 748.524C278.434 752.38 261.716 741.871 257.895 725.085C254.039 708.299 264.513 691.581 281.333 687.76ZM263.967 530.237C445.543 475.137 671.302 501.817 825.618 596.665C843.974 607.958 849.775 631.943 838.481 650.265C827.188 668.62 803.169 674.352 784.848 663.093C650.491 580.493 445.578 556.577 286.622 604.819C266.015 611.063 244.248 599.429 237.97 578.855C231.76 558.248 243.394 536.515 263.967 530.237ZM235.718 361.148C412.347 307.549 705.933 317.886 891.467 428.02C913.677 441.223 920.978 469.916 907.809 492.093C894.673 514.338 865.912 521.673 843.735 508.47C682.562 412.769 416.714 403.966 262.842 450.64C238.14 458.146 212.005 444.192 204.533 419.49C197.061 394.789 210.982 368.654 235.718 361.148Z" fill="#FFCB2E"/>
</svg>
