<svg width="186" height="186" viewBox="0 0 186 186" fill="none" xmlns="http://www.w3.org/2000/svg">
<path fill-rule="evenodd" clip-rule="evenodd" d="M105.205 40.6121L93.0621 0L81 40.3435C84.7112 39.465 88.5824 39 92.5621 39C96.9297 39 101.166 39.56 105.205 40.6121ZM145 105.205L185.612 93.0621L145.269 81C146.147 84.7112 146.612 88.5824 146.612 92.5621C146.612 96.9297 146.052 101.166 145 105.205ZM0 93.0621L40.6121 105.205C39.56 101.166 39 96.9297 39 92.5621C39 88.5824 39.465 84.7112 40.3435 81L0 93.0621ZM105.205 145L93.0621 185.612L81 145.269C84.7112 146.147 88.5824 146.612 92.5621 146.612C96.9297 146.612 101.166 146.052 105.205 145ZM93 143C120.614 143 143 120.614 143 93C143 65.3858 120.614 43 93 43C65.3858 43 43 65.3858 43 93C43 120.614 65.3858 143 93 143ZM142.69 72.9501L169.282 16.8113L113 43.4707C119.639 45.8912 125.868 49.7645 131.194 55.0906C136.43 60.3272 140.263 66.4364 142.69 72.9501ZM16.8113 16.7736L72.9501 43.3652C66.4364 45.793 60.3272 49.6253 55.0906 54.8619C49.7645 60.188 45.8912 66.4167 43.4707 73.0556L16.8113 16.7736ZM113.105 142.69L169.244 169.282L142.585 113C140.164 119.639 136.291 125.868 130.965 131.194C125.728 136.43 119.619 140.263 113.105 142.69ZM16.7736 169.244L43.3652 113.105C45.793 119.619 49.6253 125.728 54.8619 130.965C60.188 136.291 66.4167 140.164 73.0556 142.585L16.7736 169.244Z" fill="#FFCB2E"/>
</svg>
